<svg id="Layer_1_copy_Image" data-name="Layer 1 copy Image" xmlns="http://www.w3.org/2000/svg" viewBox="0 0 16363.47 682.09"><defs><style>.cls-1{fill:#060606;}</style></defs><title>01-4x</title><path class="cls-1" d="M8192.64,2014.1v398.12H10.91V2014.1c2.55-3.35,6.22-3.87,10-3.86,19.17.08,38.27,1.59,57.41,2.43,2.12.09,4.23.53,6.36.57,47.13.77,94.26,3,141.39,1.53,55.37-1.75,110.39-6.69,165.11-16.43q98.31-17.49,196.55-35.38a517.92,517.92,0,0,1,68.21-7.52c24.7-1.2,49.39-3.49,73.95-6.65a80.49,80.49,0,0,0,26.62-8.21c5.69-2.92,11.41-5.78,17.2-8.49,11.58-5.43,23.24-6.45,35.67-2.4,43,14,85.82,28.92,129,42.56,57.42,18.14,115,35.66,174,48,30.65,6.42,61.22,5.44,92.1,1.94q61.91-7,123.69-15.06c52.29-6.81,104.49-14.23,156.68-21.73q100.83-14.49,201.82-27.77c38.8-5.17,77.42-3.46,116.28.39,33.18,3.29,66.48,1.78,99.32-5.65,30.14-6.82,60.39-13.17,90.92-18a208,208,0,0,1,31-2.7c34.39-.21,68.53-4.1,102.74-7,28.37-2.43,56.76-4.77,85.08-7.62,33.15-3.34,66.39-4.55,99.6-5.58,25-.78,49.88,3.06,74.3,9.14,23.06,5.75,44.85,15.34,67.57,22.08a117.27,117.27,0,0,0,35.43,5.1c19.18-.3,38.4.67,57.55-.24,39.07-1.84,78.19-2.22,117.27-4.2,24.71-1.25,49.44-2.36,74.14-3.72,25.24-1.39,50.43-3.49,75.63-5.57,30.79-2.54,61.44-6.07,92.09-9.94,37.63-4.76,74.5-12.89,111.05-22.77,86.42-23.36,171.81-50.28,258-74.29,63.91-17.79,127.84-35.49,192.38-50.89,72.84-17.38,146-32.92,220.43-42.18,15.92-2,32-2.16,48-2.84,10.62-.45,21.24-1.5,31.9-.93h39.45a160.82,160.82,0,0,1,72.32,15.86c43.51,20.85,90.15,30.29,137.19,38.4q34.23,5.9,68.36,12.35c12.7,2.39,25,3.21,37.92.68,49.09-9.65,98.66-16.83,147.34-28.63,24.74-6,47.52-17.21,70.91-26.74,20.49-8.35,41.62-11.91,63.56-11.91h39.44c54.27,0,107.86,6.32,161.17,16.25,108.57,20.21,215.19,48.28,321.45,78,85.7,24,170.71,50.29,256.48,74,56.65,15.67,114.09,26.68,172.64,31.78,42.42,3.7,84.83,7.38,127.36,9.78,35.89,2,71.79,3.17,107.69,4.7,40.44,1.72,80.88,2.46,121.34,3.27,23.78.48,45.89-4.44,67.74-12.8,26.69-10.2,54-18.67,82.52-21.52,15.29-1.52,30.6-3.1,46.15-1.63,16.67,1.58,33.49.5,50.27,1.83q44.57,3.53,89.11,7.37c27.32,2.33,54.63,4.73,81.91,7.45,39.68,4,79.85,1.56,119.16,10.83q35.73,8.42,72,15c34.43,6.31,69,5.9,103.46,2,34.14-3.87,68-2.74,101.94,1.49,92.24,11.47,184.16,25.29,276.22,38,48.27,6.68,96.53,13.56,144.9,19.38,29.83,3.59,59.66,7.36,89.73,9.32,29.24,1.91,57.29-3.27,85.29-9.8,45.43-10.59,90.05-24.14,134.6-37.92,49.14-15.19,97.47-32.82,146.63-48,11.26-3.46,22.37-3.39,32.42,2.89,25,15.57,52.91,18.83,81.22,20.38a1139.79,1139.79,0,0,1,158.28,20.13c68.72,13.53,137.7,25.88,207.14,35.27,26.61,3.6,53.51,4.68,80.4,5.78q42.75,1.75,85.46,1.19c41.25-.48,82.48-1.75,123.66-4.37C8179.1,2010,8186.74,2007.92,8192.64,2014.1Z" transform="translate(-10.91 -1730.12)"/><path class="cls-1" d="M16374.37,2014.1v398.12H8192.64V2014.1c2.55-3.35,6.22-3.87,10-3.86,19.17.08,38.27,1.59,57.41,2.43,2.12.09,4.23.53,6.36.57,47.13.77,94.26,3,141.39,1.53,55.37-1.75,110.39-6.69,165.11-16.43q98.31-17.49,196.55-35.38a517.92,517.92,0,0,1,68.21-7.52c24.7-1.2,49.39-3.49,73.95-6.65a80.49,80.49,0,0,0,26.62-8.21c5.69-2.92,11.41-5.78,17.2-8.49,11.58-5.43,23.24-6.45,35.67-2.4,43,14,85.82,28.92,129,42.56,57.42,18.14,115,35.66,174,48,30.65,6.42,61.22,5.44,92.1,1.94q61.91-7,123.69-15.06c52.29-6.81,104.49-14.23,156.68-21.73q100.83-14.49,201.82-27.77c38.8-5.17,77.42-3.46,116.28.39,33.18,3.29,66.48,1.78,99.32-5.65,30.14-6.82,60.39-13.17,90.92-18a208,208,0,0,1,31-2.7c34.39-.21,68.53-4.1,102.74-7,28.37-2.43,56.76-4.77,85.08-7.62,33.15-3.34,66.39-4.55,99.6-5.58,25-.78,49.88,3.06,74.3,9.14,23.06,5.75,44.85,15.34,67.57,22.08a117.27,117.27,0,0,0,35.43,5.1c19.18-.3,38.4.67,57.55-.24,39.07-1.84,78.19-2.22,117.27-4.2,24.71-1.25,49.44-2.36,74.14-3.72,25.24-1.39,50.43-3.49,75.63-5.57,30.79-2.54,61.44-6.07,92.09-9.94,37.63-4.76,74.5-12.89,111.05-22.77,86.42-23.36,171.81-50.28,258-74.29,63.91-17.79,127.84-35.49,192.38-50.89,72.84-17.38,146-32.92,220.43-42.18,15.92-2,32-2.16,48-2.84,10.62-.45,21.24-1.5,31.9-.93h39.45a160.82,160.82,0,0,1,72.32,15.86c43.51,20.85,90.15,30.29,137.19,38.4q34.23,5.9,68.36,12.35c12.7,2.39,25,3.21,37.92.68,49.09-9.65,98.66-16.83,147.34-28.63,24.74-6,47.52-17.21,70.91-26.74,20.49-8.35,41.62-11.91,63.56-11.91h39.44c54.27,0,107.86,6.32,161.17,16.25,108.57,20.21,215.19,48.28,321.45,78,85.7,24,170.71,50.29,256.48,74,56.65,15.67,114.09,26.68,172.64,31.78,42.42,3.7,84.83,7.38,127.36,9.78,35.89,2,71.79,3.17,107.69,4.7,40.44,1.72,80.88,2.46,121.34,3.27,23.78.48,45.89-4.44,67.74-12.8,26.69-10.2,54-18.67,82.52-21.52,15.29-1.52,30.6-3.1,46.15-1.63,16.67,1.58,33.49.5,50.27,1.83q44.57,3.53,89.11,7.37c27.32,2.33,54.63,4.73,81.91,7.45,39.68,4,79.85,1.56,119.16,10.83q35.73,8.42,72,15c34.43,6.31,69,5.9,103.46,2,34.14-3.87,68-2.74,101.94,1.49,92.24,11.47,184.16,25.29,276.22,38,48.27,6.68,96.53,13.56,144.9,19.38,29.83,3.59,59.66,7.36,89.73,9.32,29.24,1.91,57.29-3.27,85.29-9.8,45.43-10.59,90.05-24.14,134.6-37.92,49.14-15.19,97.47-32.82,146.63-48,11.26-3.46,22.37-3.39,32.42,2.89,25,15.57,52.91,18.83,81.22,20.38a1139.79,1139.79,0,0,1,158.28,20.13c68.72,13.53,137.7,25.88,207.14,35.27,26.61,3.6,53.51,4.68,80.4,5.78q42.75,1.75,85.46,1.19c41.25-.48,82.48-1.75,123.66-4.37C16360.84,2010,16368.48,2007.92,16374.37,2014.1Z" transform="translate(-10.91 -1730.12)"/></svg>