<svg id="Layer_2_copy_Image" data-name="Layer 2 copy Image" xmlns="http://www.w3.org/2000/svg" viewBox="0 0 16363.47 821.82"><defs><style>.cls-1{fill:#1e1e1e;}</style></defs><title>02-4x</title><path class="cls-1" d="M8192.64,1812.63V2412.2H10.91q0-299.81,0-599.57c7.15-.6,14.33-1,21.46-1.85,30.12-3.6,60.22-7.37,90.34-11q55.1-6.64,110.2-13.16c29.87-3.59,59.72-7.27,89.59-10.84,33-3.95,66.09-7.77,99.13-11.74q42.42-5.1,84.82-10.41l162.34-20.07c24.53-3,49.06-6.1,73.61-9,37.2-4.4,74.55-7.78,111.59-13.27,36.22-5.36,72.15-12.66,108.15-19.4,23-4.3,45.79-9.28,68.73-13.67,35.8-6.85,71.66-13.36,107.46-20.18q60-11.42,119.91-23.11,65-12.56,130-25.15,39.53-7.68,79-15.51c6.48-1.27,12.95-2.6,19.42-3.9h8a30.61,30.61,0,0,0,5,2c15.61,3.17,31.28,6.05,46.86,9.36,20.54,4.37,41,9.06,61.51,13.58q44.77,9.86,89.55,19.67,49.4,10.83,98.8,21.66c22.51,5,45,10.13,67.47,15.12q36.46,8.1,73,16c16.88,3.64,33.71,7.66,50.74,10.41,21,3.39,42.13,5.68,63.21,8.38,26.36,3.36,52.72,6.78,79.11,9.93,21.11,2.52,42.28,4.63,63.41,7,20.86,2.37,41.69,5.09,62.57,7.3q44,4.65,88.1,8.75c29.66,2.77,59.31,5.73,89,7.71,30.27,2,60.6,3.14,90.92,4.31,21.81.84,43.64,1.3,65.47,1.64,45,.7,90,1.14,135,1.81q33.94.5,67.88,1.44c33.51,1,67,1.87,100.5,3.34a428.39,428.39,0,0,1,44.45,4.1c34.07,5.09,66.42,16.54,98.68,28.16,30,10.81,59.78,22.35,90.74,30.41,25.47,6.62,51.21,9.49,77.47,7.7a353.76,353.76,0,0,1,59,.47c4.14.41,8.31.5,13.78.81-1.78,1.38-2.32,1.86-2.92,2.24s-1.37.69-2.06,1a14.28,14.28,0,0,0,6.68,1.93c25.76,2,51.52,4,77.28,5.87,19.39,1.41,38.78,3.5,58.2,3.78a1298.93,1298.93,0,0,0,139.72-5.12c15.32-1.43,30.49-2.8,44-12,11.55-7.85,23.6-6.12,34.94,2.2,20.26,14.86,43.38,20.84,68.23,21.57,25.16.75,50-1.7,74.73-6,25.7-4.47,51.33-9.39,77.1-13.45a946.17,946.17,0,0,1,111.3-10.55c45.87-1.75,91.62-.45,137.12,6.31a27,27,0,0,0,7.87,0c44.69-6.74,89.65-8.08,134.72-6.49,61.36,2.17,122,10.52,182.15,22.53,29.86,6,60,9.23,90.55,7.23,20.82-1.37,40.37-6.83,57.77-18.83,3.28-2.27,6.73-4.31,10.2-6.28,6.36-3.63,13.18-4.59,20-1.83,5.89,2.39,11.45,5.6,17.23,8.28,3.33,1.55,6.71,3.47,10.25,4,10,1.56,20,2.88,30.12,3.6,22.32,1.6,44.65,3.34,67,4,26.36.75,52.79,1.48,79.1.25,36.7-1.71,73.32-5.23,110-8,6.74-.51,13.47-1.18,21-1.84l-5-4.41c5.57-.39,10-.87,14.51-1,15.15-.39,30.35-1.44,45.46-.77,21,.93,42,1.69,62.91-1.6,23.21-3.65,45.6-10.45,67.74-18.1,31.65-10.93,63.17-22.23,94.84-33.11,19.15-6.58,38.81-11.78,58.94-13.72,28.56-2.75,57.25-4.38,85.92-5.84,21.26-1.08,42.58-1.23,63.88-1.6,35.15-.61,70.3-1,105.46-1.58,32.48-.52,65-1,97.44-1.77,37-.92,74-2,111-3.42,21.53-.85,43.05-2.32,64.53-4.06,27.57-2.24,55.1-4.95,82.62-7.62q34.92-3.39,69.8-7.17c20.35-2.21,40.67-4.72,61-7,20.86-2.36,41.75-4.51,62.61-7,20.32-2.4,40.61-5.06,60.91-7.64,26.37-3.35,52.85-6,79.05-10.34,24.07-4,47.87-9.68,71.73-14.9,46.87-10.24,93.7-20.68,140.55-31q53.29-11.77,106.58-23.5,56.46-12.45,112.92-24.86c6.74-1.47,13.62-2.26,20.35-3.76,14-3.11,27.84-6.48,41.75-9.75h8a16,16,0,0,0,3.55,1.51c8.12,1.34,16.31,2.27,24.38,3.84,32.87,6.4,65.69,13,98.55,19.47q92,18,184,35.87c61.33,11.82,122.71,23.38,184.06,35.11,30.23,5.78,60.43,11.76,90.67,17.52,12.25,2.33,24.51,4.83,36.87,6.38,37.67,4.72,75.42,8.86,113.11,13.5,44.8,5.52,89.55,11.46,134.35,17,41.2,5.08,82.44,9.85,123.66,14.75q54.3,6.46,108.59,12.92c34.09,4.1,68.16,8.34,102.25,12.45q56.65,6.84,113.31,13.58c30.37,3.63,60.75,7.18,91.11,10.86C8153.07,1807.54,8172.85,1810.13,8192.64,1812.63Z" transform="translate(-10.91 -1590.38)"/><path class="cls-1" d="M16374.37,1812.63V2412.2H8192.64q0-299.81,0-599.57c7.15-.6,14.33-1,21.46-1.85,30.12-3.6,60.22-7.37,90.34-11q55.1-6.64,110.2-13.16c29.87-3.59,59.72-7.27,89.59-10.84,33-3.95,66.09-7.77,99.13-11.74q42.42-5.1,84.82-10.41l162.34-20.07c24.53-3,49.06-6.1,73.61-9,37.2-4.4,74.55-7.78,111.59-13.27,36.22-5.36,72.15-12.66,108.15-19.4,23-4.3,45.79-9.28,68.73-13.67,35.8-6.85,71.66-13.36,107.46-20.18q60-11.42,119.91-23.11,65-12.56,130-25.15,39.53-7.68,79-15.51c6.48-1.27,12.95-2.6,19.42-3.9h8a30.61,30.61,0,0,0,5,2c15.61,3.17,31.28,6.05,46.86,9.36,20.54,4.37,41,9.06,61.51,13.58q44.77,9.86,89.55,19.67,49.4,10.83,98.8,21.66c22.51,5,45,10.13,67.47,15.12q36.46,8.1,73,16c16.88,3.64,33.71,7.66,50.74,10.41,21,3.39,42.13,5.68,63.21,8.38,26.36,3.36,52.72,6.78,79.11,9.93,21.11,2.52,42.28,4.63,63.41,7,20.86,2.37,41.69,5.09,62.57,7.3q44,4.65,88.1,8.75c29.66,2.77,59.31,5.73,89,7.71,30.27,2,60.6,3.14,90.92,4.31,21.81.84,43.64,1.3,65.47,1.64,45,.7,90,1.14,135,1.81q33.94.5,67.88,1.44c33.51,1,67,1.87,100.5,3.34a428.39,428.39,0,0,1,44.45,4.1c34.07,5.09,66.42,16.54,98.68,28.16,30,10.81,59.78,22.35,90.74,30.41,25.47,6.62,51.21,9.49,77.47,7.7a353.76,353.76,0,0,1,59,.47c4.14.41,8.31.5,13.78.81-1.78,1.38-2.32,1.86-2.92,2.24s-1.37.69-2.06,1a14.28,14.28,0,0,0,6.68,1.93c25.76,2,51.52,4,77.28,5.87,19.39,1.41,38.78,3.5,58.2,3.78a1298.93,1298.93,0,0,0,139.72-5.12c15.32-1.43,30.49-2.8,44-12,11.55-7.85,23.6-6.12,34.94,2.2,20.26,14.86,43.38,20.84,68.23,21.57,25.16.75,50-1.7,74.73-6,25.7-4.47,51.33-9.39,77.1-13.45a946.17,946.17,0,0,1,111.3-10.55c45.87-1.75,91.62-.45,137.12,6.31a27,27,0,0,0,7.87,0c44.69-6.74,89.65-8.08,134.72-6.49,61.36,2.17,122,10.52,182.15,22.53,29.86,6,60,9.23,90.55,7.23,20.82-1.37,40.37-6.83,57.77-18.83,3.28-2.27,6.73-4.31,10.2-6.28,6.36-3.63,13.18-4.59,20-1.83,5.89,2.39,11.45,5.6,17.23,8.28,3.33,1.55,6.71,3.47,10.25,4,10,1.56,20,2.88,30.12,3.6,22.32,1.6,44.65,3.34,67,4,26.36.75,52.79,1.48,79.1.25,36.7-1.71,73.32-5.23,110-8,6.74-.51,13.47-1.18,21-1.84l-5-4.41c5.57-.39,10-.87,14.51-1,15.15-.39,30.35-1.44,45.46-.77,21,.93,42,1.69,62.91-1.6,23.21-3.65,45.6-10.45,67.74-18.1,31.65-10.93,63.17-22.23,94.84-33.11,19.15-6.58,38.81-11.78,58.94-13.72,28.56-2.75,57.25-4.38,85.92-5.84,21.26-1.08,42.58-1.23,63.88-1.6,35.15-.61,70.3-1,105.46-1.58,32.48-.52,65-1,97.44-1.77,37-.92,74-2,111-3.42,21.53-.85,43.05-2.32,64.53-4.06,27.57-2.24,55.1-4.95,82.62-7.62q34.92-3.39,69.8-7.17c20.35-2.21,40.67-4.72,61-7,20.86-2.36,41.75-4.51,62.61-7,20.32-2.4,40.61-5.06,60.91-7.64,26.37-3.35,52.85-6,79.05-10.34,24.07-4,47.87-9.68,71.73-14.9,46.87-10.24,93.7-20.68,140.55-31q53.29-11.77,106.58-23.5,56.46-12.45,112.92-24.86c6.74-1.47,13.62-2.26,20.35-3.76,14-3.11,27.84-6.48,41.75-9.75h8a16,16,0,0,0,3.55,1.51c8.12,1.34,16.31,2.27,24.38,3.84,32.87,6.4,65.69,13,98.55,19.47q92,18,184,35.87c61.33,11.82,122.71,23.38,184.06,35.11,30.23,5.78,60.43,11.76,90.67,17.52,12.25,2.33,24.51,4.83,36.87,6.38,37.67,4.72,75.42,8.86,113.11,13.5,44.8,5.52,89.55,11.46,134.35,17,41.2,5.08,82.44,9.85,123.66,14.75q54.3,6.46,108.59,12.92c34.09,4.1,68.16,8.34,102.25,12.45q56.65,6.84,113.31,13.58c30.37,3.63,60.75,7.18,91.11,10.86C16334.8,1807.54,16354.58,1810.13,16374.37,1812.63Z" transform="translate(-10.91 -1590.38)"/></svg>