<svg id="Layer_8_copy_Image" data-name="Layer 8 copy Image" xmlns="http://www.w3.org/2000/svg" viewBox="0 0 16363.47 861.8"><defs><style>.cls-1{fill:#282828;}</style></defs><title>03-4x</title><path class="cls-1" d="M8192.64,1820.63V2412.2H10.91q0-295,0-590c2.83-.74,5.67-1.47,8.49-2.23,89.51-24.09,179.35-46.64,271.88-56a408.17,408.17,0,0,1,67-1.53c20.7,1.31,41.56,2.08,62.25,1.13,26.3-1.21,52.57-3.85,78.74-6.85a1165.21,1165.21,0,0,0,130.64-22.13c36-8.34,71.45-19.24,106.78-30.19,26.94-8.35,54.08-14,82.32-13.65,27.16.29,54.32.76,81.49.88,13.31.06,26.71.38,39.9-1,18.23-2,36.32-5.3,54.43-8.32,19.94-3.33,39.72-8,59.77-10.28,50.28-5.66,100.42-12.14,150.23-21,42.74-7.64,85.18-16.62,126.41-30.58,27.09-9.17,55-14.85,83.28-18.56,39.17-5.14,78.57-6.57,118-5.72,34.35.75,68.62.27,102.91-2.13,22.54-1.58,45.14-2.25,67.72-3.3,23.64-1.09,47.28-2.23,70.93-3.19,28.44-1.16,56.88-2.81,85.33-3,36.74-.3,73.5.57,110.24,1q11.58.13,23.16.52c23.13.82,46.26,2.25,69.4,2.39,16.18.1,32.41-1.14,48.56-2.46,36.27-3,72.5-6.41,108.76-9.56,31.49-2.74,63-5.73,94.5-7.89,30.77-2.12,61.6-3.31,92.39-5,12.48-.67,25-1.33,37.42-2.24,24.9-1.82,49.78-4,74.69-5.66,23.08-1.56,46.19-2.65,69.28-4a16.31,16.31,0,0,0,3.73-1.15h32a12.27,12.27,0,0,0,2.94,1.1c22.2,2.27,44.42,4.34,66.6,6.73,27,2.91,53.92,5.75,80.8,9.22a769.21,769.21,0,0,0,83.53,6.67c42.6.83,85.21,1.27,127.82,1.85,39.15.53,78.31.91,117.46,1.61,16.5.3,33,1.05,49.49,2,27.62,1.53,55.23,3.41,82.85,5.06q51,3,102,5.94c24.71,1.44,49.41,3.36,74.15,4.28,51.11,1.89,102.28,2.48,153.36,5,57.18,2.84,114.32,6.88,171.42,11.08,58.43,4.3,116.61,11.11,174.65,19.11,63.07,8.7,125.74,19.48,187.73,34a29.63,29.63,0,0,0,14.1,0q71.16-16.76,143.5-27.46c36.08-5.27,72.22-10.27,108.42-14.58,34.89-4.16,69.88-7.61,104.88-10.75q46.55-4.17,93.22-6.9,72.6-4.18,145.26-7.27c31.41-1.3,62.88-.92,94.28-2.35,39.34-1.79,78.62-4.71,117.94-7,32.93-1.95,65.86-3.94,98.81-5.54,40.68-2,81.37-4.2,122.09-5.11,59.91-1.34,119.85-1.44,179.77-2.43,25.29-.42,50.61-1.09,75.83-2.84,23.34-1.62,46.57-4.76,69.83-7.35q49.5-5.51,99-11.21c7-.81,14.06-1.89,21.09-2.85H5620a16.32,16.32,0,0,0,3.68,1.15c9.55.65,19.11,1.16,28.66,1.78q39,2.52,78,5.09c22.81,1.52,45.6,3.21,68.41,4.63,14.34.89,28.71,1.3,43,2.16q32.24,1.91,64.46,4.16c17,1.18,33.94,2.45,50.89,3.93,26.2,2.3,52.37,4.86,78.56,7.24,15.61,1.42,31.23,2.79,46.86,4,18.28,1.42,36.57,3.69,54.87,3.73,27.4.05,54.8-1.74,82.21-2.34,35.68-.78,71.37-1.64,107.06-1.54,26.86.08,53.72,1.59,80.57,2.51q26.33.91,52.65,2c21.52.9,43,1.93,64.57,2.87q25.92,1.13,51.84,2.17c23.39.93,46.77,2.2,70.17,2.58,27.44.45,54.89-.36,82.33.21,39.77.82,79.26,4.83,117.92,14.53,20.12,5,39.78,11.93,59.77,17.53,64,17.94,129.51,28.17,195.29,36.77,19,2.49,38.17,3.88,57.11,6.78,25.77,3.95,51.36,9.07,77.09,13.29,17.85,2.92,35.65,6.5,53.88,6.24,15.72-.23,31.44-.63,47.16-.67,24-.06,48-.27,71.91.35a168,168,0,0,1,47.14,7.72q28.53,9.14,57.37,17.3c24.09,6.78,48.08,14.19,72.54,19.27,52.41,10.88,105.2,19.81,158.54,24.88,30.78,2.92,61.61,5.11,92.57,2.9,10.89-.78,21.8-1.63,32.71-1.84,33.41-.63,66.48,3.39,99.41,8.43,48.73,7.45,96.89,17.83,144.71,29.72C8140.21,1806.42,8166.39,1813.68,8192.64,1820.63Z" transform="translate(-10.91 -1550.41)"/><path class="cls-1" d="M16374.37,1820.63V2412.2H8192.64q0-295,0-590c2.83-.74,5.67-1.47,8.49-2.23,89.51-24.09,179.35-46.64,271.88-56a408.17,408.17,0,0,1,67-1.53c20.7,1.31,41.56,2.08,62.25,1.13,26.3-1.21,52.57-3.85,78.74-6.85a1165.21,1165.21,0,0,0,130.64-22.13c36-8.34,71.45-19.24,106.78-30.19,26.94-8.35,54.08-14,82.32-13.65,27.16.29,54.32.76,81.49.88,13.31.06,26.71.38,39.9-1,18.23-2,36.32-5.3,54.43-8.32,19.94-3.33,39.72-8,59.77-10.28,50.28-5.66,100.42-12.14,150.23-21,42.74-7.64,85.18-16.62,126.41-30.58,27.09-9.17,55-14.85,83.28-18.56,39.17-5.14,78.57-6.57,118-5.72,34.35.75,68.62.27,102.91-2.13,22.54-1.58,45.14-2.25,67.72-3.3,23.64-1.09,47.28-2.23,70.93-3.19,28.44-1.16,56.88-2.81,85.33-3,36.74-.3,73.5.57,110.24,1q11.58.13,23.16.52c23.13.82,46.26,2.25,69.4,2.39,16.18.1,32.41-1.14,48.56-2.46,36.27-3,72.5-6.41,108.76-9.56,31.49-2.74,63-5.73,94.5-7.89,30.77-2.12,61.6-3.31,92.39-5,12.48-.67,25-1.33,37.42-2.24,24.9-1.82,49.78-4,74.69-5.66,23.08-1.56,46.19-2.65,69.28-4a16.31,16.31,0,0,0,3.73-1.15h32a12.27,12.27,0,0,0,2.94,1.1c22.2,2.27,44.42,4.34,66.6,6.73,27,2.91,53.92,5.75,80.8,9.22a769.21,769.21,0,0,0,83.53,6.67c42.6.83,85.21,1.27,127.82,1.85,39.15.53,78.31.91,117.46,1.61,16.5.3,33,1.05,49.49,2,27.62,1.53,55.23,3.41,82.85,5.06q51,3,102,5.94c24.71,1.44,49.41,3.36,74.15,4.28,51.11,1.89,102.28,2.48,153.36,5,57.18,2.84,114.32,6.88,171.42,11.08,58.43,4.3,116.61,11.11,174.65,19.11,63.07,8.7,125.74,19.48,187.73,34a29.63,29.63,0,0,0,14.1,0q71.16-16.76,143.5-27.46c36.08-5.27,72.22-10.27,108.42-14.58,34.89-4.16,69.88-7.61,104.88-10.75q46.55-4.17,93.22-6.9,72.6-4.18,145.26-7.27c31.41-1.3,62.88-.92,94.28-2.35,39.34-1.79,78.62-4.71,117.94-7,32.93-1.95,65.86-3.94,98.81-5.54,40.68-2,81.37-4.2,122.09-5.11,59.91-1.34,119.85-1.44,179.77-2.43,25.29-.42,50.61-1.09,75.83-2.84,23.34-1.62,46.57-4.76,69.83-7.35q49.5-5.51,99-11.21c7-.81,14.06-1.89,21.09-2.85h33.58a16.32,16.32,0,0,0,3.68,1.15c9.55.65,19.11,1.16,28.66,1.78q39,2.52,78,5.09c22.81,1.52,45.6,3.21,68.41,4.63,14.34.89,28.71,1.3,43,2.16q32.24,1.91,64.46,4.16c17,1.18,33.94,2.45,50.89,3.93,26.2,2.3,52.37,4.86,78.56,7.24,15.61,1.42,31.23,2.79,46.86,4,18.28,1.42,36.57,3.69,54.87,3.73,27.4.05,54.8-1.74,82.21-2.34,35.68-.78,71.37-1.64,107.06-1.54,26.86.08,53.72,1.59,80.57,2.51q26.33.91,52.65,2c21.52.9,43,1.93,64.57,2.87q25.92,1.13,51.84,2.17c23.39.93,46.77,2.2,70.17,2.58,27.44.45,54.89-.36,82.33.21,39.77.82,79.26,4.83,117.92,14.53,20.12,5,39.78,11.93,59.77,17.53,64,17.94,129.51,28.17,195.29,36.77,19,2.49,38.17,3.88,57.11,6.78,25.77,3.95,51.36,9.07,77.09,13.29,17.85,2.92,35.65,6.5,53.88,6.24,15.72-.23,31.44-.63,47.16-.67,24-.06,48-.27,71.91.35a168,168,0,0,1,47.14,7.72q28.53,9.14,57.37,17.3c24.09,6.78,48.08,14.19,72.54,19.27,52.41,10.88,105.2,19.81,158.54,24.88,30.78,2.92,61.61,5.11,92.57,2.9,10.89-.78,21.8-1.63,32.71-1.84,33.41-.63,66.48,3.39,99.41,8.43,48.73,7.45,96.89,17.83,144.71,29.72C16321.95,1806.42,16348.12,1813.68,16374.37,1820.63Z" transform="translate(-10.91 -1550.41)"/></svg>