<svg id="Layer_4_copy_Image" data-name="Layer 4 copy Image" xmlns="http://www.w3.org/2000/svg" viewBox="0 0 16363.47 1045.7"><defs><style>.cls-1{fill:#464646;}</style></defs><title>04-4x</title><path class="cls-1" d="M8192.64,1570.39V2413H10.91q0-421.32,0-842.64c12.78.06,25.57-.06,38.34.22,30.35.68,60.7,1.61,91.06,2.32,29.29.69,58.59,1.23,87.88,1.82,12.25.25,24.51.37,36.76.66,30.62.74,61.24,1.58,91.86,2.33,25.83.64,51.66,1.19,77.49,1.82q60.31,1.47,120.61,3,36.74.92,73.49,1.88,52.71,1.42,105.42,2.91c29.55.81,59.11,1.39,88.66,2.42,32.45,1.13,64.9,2.64,97.34,4,17.29.73,34.57,1.45,51.85,2.33,25.51,1.29,51,2.77,76.53,4.06,17.55.88,35.1,1.56,52.65,2.33,30.58,1.35,61.16,2.81,91.74,4,20.76.82,41.52,1.53,62.29,1.83q51.91.77,103.83.88c8.74,0,17.61-.14,26.22-1.5,30.73-4.87,60.61-14.14,91.71-17.38,9.34-1,18.27-2.45,27.43.53a123.55,123.55,0,0,0,12.45,2.82c9.88,2.11,19.66,4.61,30,4,13.81-.88,27.65-1.33,41.47-2,18.34-.91,36.68-1.93,55-2.81,15.15-.73,30.31-1.31,45.47-2,19.94-.91,39.88-1.92,59.82-2.79,15.69-.69,31.38-1.25,47.07-1.83,26.87-1,53.74-2.87,80.61-2.78,44.2.14,88.4,1.5,132.6,2.46,12.24.27,24.47,1.16,36.71,1.36,13.85.23,27.75.66,41.55-.16,21.5-1.28,42.94-3.54,64.4-5.4,44.52-3.87,89-7.83,133.55-11.6,19.61-1.66,39.24-3.21,58.88-4.38,23.9-1.43,47.84-2.15,71.74-3.64,27.87-1.74,55.71-4.07,83.57-6s55.75-3.48,83.62-5.37a324.44,324.44,0,0,1,57.4.87c31.2,3.42,62.35,7.26,93.55,10.68,8.69,1,17.61,2.26,26.2,1.35,55.8-5.93,111.58-12.07,167.28-18.85,48-5.85,96-12.43,143.92-19.07,58.9-8.17,116.4-22.55,173.36-39.42,28.55-8.45,57.23-16.94,86.37-22.82,62.86-12.68,126.08-23.58,189.12-35.42s126-23.92,189-35.92c17.52-3.34,34.89-7.75,52.54-9.94,21.63-2.68,43.47-3.78,65.25-5.14,30-1.87,60-3.58,90.09-4.92,32.72-1.46,65.46-2.39,98.19-3.63a69.13,69.13,0,0,0,7.78-1.16h164.69a52.87,52.87,0,0,0,7,1.14c17,.53,34.08.76,51.11,1.43,29.53,1.17,59.06,2.35,88.57,4q42.25,2.36,84.43,5.77c15.62,1.25,31.34,2.53,46.72,5.38,60.18,11.15,120.21,23.09,180.35,34.44q88.24,16.66,176.6,32.72c40.62,7.34,81.1,15.11,120.69,27q35.89,10.79,72,20.72c70,19.23,141.68,29.18,213.49,38.29,37.2,4.72,74.45,9,111.71,13.27,37.52,4.3,75.07,8.38,112.62,12.46a47.33,47.33,0,0,0,10.37-.07c25.64-2.91,51.29-5.68,76.87-9,33.88-4.44,67.79-6.14,101.9-3.58,27.05,2,54.12,3.86,81.19,5.72q29.46,2,58.92,3.93c20.7,1.36,41.4,2.78,62.11,4,16.73,1,33.52,1.2,50.22,2.5,34.74,2.69,69.44,5.81,104.15,8.87,28.35,2.5,56.67,5.3,85,7.76,23.86,2.07,47.74,4,71.74,3.32q45.51-1.37,91-2.69c9.05-.26,18.11-.57,27.16-.57q48.72,0,97.45.23c7.45,0,14.91.27,22.36.6,29.78,1.31,59.55,2.71,89.33,4,18.61.83,37.23,1.51,55.84,2.37q31.5,1.45,63,3.1c14.08.73,28.16,1.62,42.24,2.35,17.82.92,35.61,2,53-3.62,6.3-2,13-2.92,19.49-4.23,2.06-.41,4.28-1,6.27-.65,21.74,3.77,43.5,7.44,65.15,11.69,21.11,4.14,41.85,10.08,63.74,9.43,19.41-.58,38.86.16,58.28-.15,27.69-.45,55.38-1.3,83.07-2,19.17-.51,38.34-.88,57.49-1.72,31.64-1.38,63.26-3.07,94.9-4.65s63.25-3.23,94.89-4.75c34.56-1.66,69.12-3.4,103.69-4.77,33-1.31,66-2.26,99-3.25q56.3-1.69,112.61-3.17,63.1-1.69,126.2-3.24,65.1-1.62,130.2-3.15,69.9-1.66,139.8-3.25t139.8-3.12C8125,1571.42,8158.81,1571,8192.64,1570.39Z" transform="translate(-10.91 -1367.33)"/><path class="cls-1" d="M16374.37,1570.39V2413H8192.64V1570.39c12.78.06,25.57-.06,38.34.22,30.35.68,60.7,1.61,91.06,2.32,29.29.69,58.59,1.23,87.88,1.82,12.25.25,24.51.37,36.76.66,30.62.74,61.24,1.58,91.86,2.33,25.83.64,51.66,1.19,77.49,1.82q60.31,1.47,120.61,3,36.74.92,73.49,1.88,52.71,1.42,105.42,2.91c29.55.81,59.11,1.39,88.66,2.42,32.45,1.13,64.9,2.64,97.34,4,17.29.73,34.57,1.45,51.85,2.33,25.51,1.29,51,2.77,76.53,4.06,17.55.88,35.1,1.56,52.65,2.33,30.58,1.35,61.16,2.81,91.74,4,20.76.82,41.52,1.53,62.29,1.83q51.91.77,103.83.88c8.74,0,17.61-.14,26.22-1.5,30.73-4.87,60.61-14.14,91.71-17.38,9.34-1,18.27-2.45,27.43.53a123.55,123.55,0,0,0,12.45,2.82c9.88,2.11,19.66,4.61,30,4,13.81-.88,27.65-1.33,41.47-2,18.34-.91,36.68-1.93,55-2.81,15.15-.73,30.31-1.31,45.47-2,19.94-.91,39.88-1.92,59.82-2.79,15.69-.69,31.38-1.25,47.07-1.83,26.87-1,53.74-2.87,80.61-2.78,44.2.14,88.4,1.5,132.6,2.46,12.24.27,24.47,1.16,36.71,1.36,13.85.23,27.75.66,41.55-.16,21.5-1.28,42.94-3.54,64.4-5.4,44.52-3.87,89-7.83,133.55-11.6,19.61-1.66,39.24-3.21,58.88-4.38,23.9-1.43,47.84-2.15,71.74-3.64,27.87-1.74,55.71-4.07,83.57-6s55.75-3.48,83.62-5.37a324.44,324.44,0,0,1,57.4.87c31.2,3.42,62.35,7.26,93.55,10.68,8.69,1,17.61,2.26,26.2,1.35,55.8-5.93,111.58-12.07,167.28-18.85,48-5.85,96-12.43,143.92-19.07,58.9-8.17,116.4-22.55,173.36-39.42,28.55-8.45,57.23-16.94,86.37-22.82,62.86-12.68,126.08-23.58,189.12-35.42s126-23.92,189-35.92c17.52-3.34,34.89-7.75,52.54-9.94,21.63-2.68,43.47-3.78,65.25-5.14,30-1.87,60-3.58,90.09-4.92,32.72-1.46,65.46-2.39,98.19-3.63a69.13,69.13,0,0,0,7.78-1.16H12369a52.87,52.87,0,0,0,7,1.14c17,.53,34.08.76,51.11,1.43,29.53,1.17,59.06,2.35,88.57,4q42.25,2.36,84.43,5.77c15.62,1.25,31.34,2.53,46.72,5.38,60.18,11.15,120.21,23.09,180.35,34.44q88.24,16.66,176.6,32.72c40.62,7.34,81.1,15.11,120.69,27q35.89,10.79,72,20.72c70,19.23,141.68,29.18,213.49,38.29,37.2,4.72,74.45,9,111.71,13.27,37.52,4.3,75.07,8.38,112.62,12.46a47.33,47.33,0,0,0,10.37-.07c25.64-2.91,51.29-5.68,76.87-9,33.88-4.44,67.79-6.14,101.9-3.58,27.05,2,54.12,3.86,81.19,5.72q29.46,2,58.92,3.93c20.7,1.36,41.4,2.78,62.11,4,16.73,1,33.52,1.2,50.22,2.5,34.74,2.69,69.44,5.81,104.15,8.87,28.35,2.5,56.67,5.3,85,7.76,23.86,2.07,47.74,4,71.74,3.32q45.51-1.37,91-2.69c9.05-.26,18.11-.57,27.16-.57q48.72,0,97.45.23c7.45,0,14.91.27,22.36.6,29.78,1.31,59.55,2.71,89.33,4,18.61.83,37.23,1.51,55.84,2.37q31.5,1.45,63,3.1c14.08.73,28.16,1.62,42.24,2.35,17.82.92,35.61,2,53-3.62,6.3-2,13-2.92,19.49-4.23,2.06-.41,4.28-1,6.27-.65,21.74,3.77,43.5,7.44,65.15,11.69,21.11,4.14,41.85,10.08,63.74,9.43,19.41-.58,38.86.16,58.28-.15,27.69-.45,55.38-1.3,83.07-2,19.17-.51,38.34-.88,57.49-1.72,31.64-1.38,63.26-3.07,94.9-4.65s63.25-3.23,94.89-4.75c34.56-1.66,69.12-3.4,103.69-4.77,33-1.31,66-2.26,99-3.25q56.3-1.69,112.61-3.17,63.1-1.69,126.2-3.24,65.1-1.62,130.2-3.15,69.9-1.66,139.8-3.25t139.8-3.12C16306.72,1571.42,16340.55,1571,16374.37,1570.39Z" transform="translate(-10.91 -1367.33)"/></svg>