<svg id="Layer_5_copy_Image" data-name="Layer 5 copy Image" xmlns="http://www.w3.org/2000/svg" viewBox="0 0 16363.47 1028.11"><defs><style>.cls-1{fill:#b5b5b5;}</style></defs><title>05-4x</title><path class="cls-1" d="M8192.64,1513.63v898.6H10.91q0-449.3,0-898.6c32.75-.45,65.5-.95,98.24-1.33,50.61-.59,101.21-1.2,151.82-1.59q54.76-.42,109.52-.27,177,.65,354.08,1.67c33,.23,66,1.67,99,3,32.18,1.29,64.33,3.26,96.51,4.72q41.09,1.86,82.19,3.21c25.82.81,51.65,1.06,77.47,1.86,26.61.82,53.19,2.35,79.8,3,39.67.92,79.36,1.26,119,1.94,19.43.33,38.85.86,58.28,1.35,20,.5,39.91,1.25,59.88,1.57q60.72,1,121.45,1.6,104.29,1,208.58,1.56c18.9.09,37.8-.6,56.69-1.18q47.5-1.44,95-3.21,35.51-1.34,71-3.16c27.39-1.42,54.76-3.06,82.14-4.72q51-3.09,102-6.35,51.41-3.22,102.83-6.47,47.42-3.06,94.83-6.3,48.21-3.22,96.41-6.44,39-2.55,78-4.93c25.24-1.58,50.47-3.24,75.72-4.67,30.57-1.74,61.15-3.23,91.72-4.91,36.69-2,73.37-4.21,110.06-6.17,35.1-1.88,70.21-3.58,105.32-5.36,12-.6,23.94-1.1,35.9-1.8,23.92-1.4,47.82-3.06,71.74-4.31,26.32-1.38,52.66-2.38,79-3.63,9.84-.47,19.66-1.21,29.49-1.77,25.52-1.45,51-3,76.56-4.25,16.22-.82,32.46-1.28,48.68-2q16.35-.71,32.7-1.64c25.24-1.42,50.47-3,75.72-4.31,25.79-1.31,51.59-2.29,77.38-3.46a71.2,71.2,0,0,0,7.13-.84c22.66-3.35,45.28-7,68-10,54.91-7.33,109.81-14.69,164.79-21.42q62.64-7.67,125.48-13.72,54.07-5.18,108.31-8.45c36.68-2.23,73.42-3.33,110.14-5,4.5-.2,9-.86,13.46-1.3h185.48a67,67,0,0,0,7.87,1.19c20,.71,39.95,1,59.9,2,30.32,1.5,60.64,3.1,90.92,5.3,27.88,2,55.72,4.69,83.55,7.44,32.33,3.19,64.65,6.52,96.93,10.25q49.2,5.68,98.3,12.27c40.39,5.4,80.71,11.29,121.07,16.84,15,2.06,30.06,4.18,45.16,5.49,13.78,1.19,27.65,1.25,41.48,1.93q45.06,2.23,90.11,4.61c25.78,1.38,51.54,3,77.32,4.32,25.53,1.31,51.07,2.38,76.6,3.58,13,.61,26.07,1.16,39.1,1.9,24.71,1.39,49.41,3,74.13,4.3,25.53,1.34,51.07,2.39,76.6,3.61,10.9.52,21.8,1.14,32.69,1.78,33.23,1.95,66.45,4,99.68,5.87,24.19,1.36,48.4,2.45,72.6,3.71q16,.83,31.9,1.82c21.52,1.33,43,2.86,64.57,4,25,1.35,50,2.35,75,3.58,10.64.52,21.27,1.18,31.89,1.87,21.76,1.42,43.52,2.92,65.28,4.34,11.43.75,22.86,1.34,34.28,2.14,19.12,1.33,38.22,2.87,57.34,4.14,20.46,1.36,40.93,2.43,61.39,3.8,35.59,2.37,71.17,4.93,106.76,7.31,25,1.67,49.95,3.17,74.92,4.74q51.81,3.24,103.63,6.44c27.64,1.67,55.28,3.41,82.93,4.74q43.87,2.1,87.78,3.45,59.08,1.81,118.18,3c9.29.19,18.61-1,27.91-1.12,78.59-.64,157.18-1.05,235.77-1.76,30.09-.27,60.17-1.1,90.25-1.74,18.89-.4,37.79-1,56.68-1.37,32.22-.6,64.44-1.35,96.66-1.52,41.82-.23,83.6-.94,125.37-3.17,19.67-1,39.39-1.1,59.08-1.73,31.13-1,62.27-1.89,93.39-3.18,33.78-1.4,67.53-3.27,101.3-4.79,26.33-1.18,52.66-2.34,79-3.13,26.62-.8,53.25-1.27,79.88-1.61q36.37-.46,72.75-.32,188.23.69,376.46,1.57c48.48.25,96.95,1.1,145.42,1.52C8143.08,1513.75,8167.86,1513.61,8192.64,1513.63Z" transform="translate(-10.91 -1384.12)"/><path class="cls-1" d="M16374.37,1513.63v898.6H8192.64v-898.6c32.75-.45,65.5-.95,98.24-1.33,50.61-.59,101.21-1.2,151.82-1.59q54.76-.42,109.52-.27,177,.65,354.08,1.67c33,.23,66,1.67,99,3,32.18,1.29,64.33,3.26,96.51,4.72q41.09,1.86,82.19,3.21c25.82.81,51.65,1.06,77.47,1.86,26.61.82,53.19,2.35,79.8,3,39.67.92,79.36,1.26,119,1.94,19.43.33,38.85.86,58.28,1.35,20,.5,39.91,1.25,59.88,1.57q60.72,1,121.45,1.6,104.29,1,208.58,1.56c18.9.09,37.8-.6,56.69-1.18q47.5-1.44,95-3.21,35.51-1.34,71-3.16c27.39-1.42,54.76-3.06,82.14-4.72q51-3.09,102-6.35,51.41-3.22,102.83-6.47,47.42-3.06,94.83-6.3,48.21-3.22,96.41-6.44,39-2.55,78-4.93c25.24-1.58,50.47-3.24,75.72-4.67,30.57-1.74,61.15-3.23,91.72-4.91,36.69-2,73.37-4.21,110.06-6.17,35.1-1.88,70.21-3.58,105.32-5.36,12-.6,23.94-1.1,35.9-1.8,23.92-1.4,47.82-3.06,71.74-4.31,26.32-1.38,52.66-2.38,79-3.63,9.84-.47,19.66-1.21,29.49-1.77,25.52-1.45,51-3,76.56-4.25,16.22-.82,32.46-1.28,48.68-2q16.35-.71,32.7-1.64c25.24-1.42,50.47-3,75.72-4.31,25.79-1.31,51.59-2.29,77.38-3.46a71.2,71.2,0,0,0,7.13-.84c22.66-3.35,45.28-7,68-10,54.91-7.33,109.81-14.69,164.79-21.42q62.64-7.67,125.48-13.72,54.07-5.18,108.31-8.45c36.68-2.23,73.42-3.33,110.14-5,4.5-.2,9-.86,13.46-1.3h185.48a67,67,0,0,0,7.87,1.19c20,.71,39.95,1,59.9,2,30.32,1.5,60.64,3.1,90.92,5.3,27.88,2,55.72,4.69,83.55,7.44,32.33,3.19,64.65,6.52,96.93,10.25q49.2,5.68,98.3,12.27c40.39,5.4,80.71,11.29,121.07,16.84,15,2.06,30.06,4.18,45.16,5.49,13.78,1.19,27.65,1.25,41.48,1.93q45.06,2.23,90.11,4.61c25.78,1.38,51.54,3,77.32,4.32,25.53,1.31,51.07,2.38,76.6,3.58,13,.61,26.07,1.16,39.1,1.9,24.71,1.39,49.41,3,74.13,4.3,25.53,1.34,51.07,2.39,76.6,3.61,10.9.52,21.8,1.14,32.69,1.78,33.23,1.95,66.45,4,99.68,5.87,24.19,1.36,48.4,2.45,72.6,3.71q16,.83,31.9,1.82c21.52,1.33,43,2.86,64.57,4,25,1.35,50,2.35,75,3.58,10.64.52,21.27,1.18,31.89,1.87,21.76,1.42,43.52,2.92,65.28,4.34,11.43.75,22.86,1.34,34.28,2.14,19.12,1.33,38.22,2.87,57.34,4.14,20.46,1.36,40.93,2.43,61.39,3.8,35.59,2.37,71.17,4.93,106.76,7.31,25,1.67,49.95,3.17,74.92,4.74q51.81,3.24,103.63,6.44c27.64,1.67,55.28,3.41,82.93,4.74q43.87,2.1,87.78,3.45,59.08,1.81,118.18,3c9.29.19,18.61-1,27.91-1.12,78.59-.64,157.18-1.05,235.77-1.76,30.09-.27,60.17-1.1,90.25-1.74,18.89-.4,37.79-1,56.68-1.37,32.22-.6,64.44-1.35,96.66-1.52,41.82-.23,83.6-.94,125.37-3.17,19.67-1,39.39-1.1,59.08-1.73,31.13-1,62.27-1.89,93.39-3.18,33.78-1.4,67.53-3.27,101.3-4.79,26.33-1.18,52.66-2.34,79-3.13,26.62-.8,53.25-1.27,79.88-1.61q36.37-.46,72.75-.32,188.23.69,376.46,1.57c48.48.25,96.95,1.1,145.42,1.52C16324.81,1513.75,16349.59,1513.61,16374.37,1513.63Z" transform="translate(-10.91 -1384.12)"/></svg>