<svg id="Layer_6_copy_Image" data-name="Layer 6 copy Image" xmlns="http://www.w3.org/2000/svg" viewBox="0 0 16363.47 1088.83"><defs><style>.cls-1{fill:#d2d2d2;}</style></defs><title>06-4x</title><path class="cls-1" d="M8192.64,1370.53V2413H10.91V1370.53l144.63,1.52c50.34.53,100.69,1.52,151,1.45,64.47-.1,128.94,1.61,193.4-1.1,31.92-1.34,63.9-1.2,95.85-1.88,20-.42,39.92-1.13,59.88-1.71.53,0,1.06-.07,1.6-.1q39-2.26,78.09-4.51c20.72-1.18,41.45-2.25,62.17-3.47,7.7-.45,15.39-1.13,23.08-1.79,16.44-1.41,32.87-2.89,49.3-4.32,20.41-1.78,40.85-3.39,61.24-5.36,24.37-2.36,48.71-5,73.07-7.55,17.47-1.8,34.94-3.76,52.44-5.25,19.61-1.67,39.25-3.34,58.91-4.16,16.46-.68,33,0,49.46-.17,65.8-.68,131.59.67,197.41-1.15,67.36-1.86,134.79-1.36,202.18-2,20.5-.21,41-.95,61.48-1.45,22.89-.57,45.77-1.2,68.66-1.69,9.32-.2,18.66.06,28-.16,3.4-.08,6.79-1,10.18-1.47h73.55a30.17,30.17,0,0,0,5.39,1.34c19.38,1.22,38.78,2.15,58.15,3.53q22.69,1.61,45.31,4.07c13.47,1.47,26.85,3.76,40.32,5.25,18,2,36,3.57,54,5.33,31,3,61.95,6.45,93,9,27,2.19,54.16,3.73,81.28,4.83,26.6,1.08,53.23,1.29,79.85,1.77,51.4.92,102.79-.65,154.21,1.33,46.56,1.8,93.2,1.32,139.8,2,14.63.23,29.26,1,43.88,1.79,7.7.41,15.4,1.11,23.06,2.07q33.69,4.19,67.34,8.72,62.94,8.45,125.86,17.07c24.8,3.37,49.59,6.87,74.4,10.13q54.25,7.12,108.54,13.94c28.53,3.54,57.08,7,85.68,10,26.2,2.7,52.47,4.79,78.74,6.83q33,2.57,66.1,4.39c16.74.92,33.52,1.25,50.27,1.87,2.12.08,4.24.43,6.36.58,12.21.82,24.43,2.34,36.63,2.3,43.14-.16,86.28-.75,129.42-1.4,19.16-.29,38.32-1,57.47-1.73q16.75-.6,33.48-1.7c21.24-1.39,42.46-3,63.69-4.44,24.68-1.72,49.4-3.06,74-5.22q45.72-4,91.35-9.14c37.3-4.17,74.61-8.38,111.8-13.45q106.11-14.45,211.14-35.53a45.79,45.79,0,0,1,16.56-.12c42,7.41,83.79,15.64,125.81,22.67,34.66,5.8,69.5,10.55,104.33,15.29,26.9,3.66,53.88,6.75,80.87,9.78,28.83,3.23,57.67,6.36,86.55,9,23,2.12,46.16,3.48,69.25,5.18,8.49.63,17,1.29,25.47,1.91,12.47.91,24.93,2,37.41,2.65,14.61.79,29.25,1.21,43.87,1.83,12.5.52,25,1.1,37.48,1.64,22.6,1,45.19,2.72,67.79,2.81,45.52.18,91.06,1.47,136.53-2.76,21.44-2,43-2.12,64.57-3.36,25.24-1.45,50.47-3,75.67-4.86,19.37-1.46,38.72-3.31,58-5.41,25.14-2.74,50.25-5.82,75.35-8.92,35.67-4.4,71.35-8.8,107-13.49,37.49-4.94,74.93-10.24,112.4-15.35,38-5.18,76-10.51,114-15.39,24.82-3.18,49.66-6.47,74.6-8.28,27.59-2,55.29-2.81,83-3.39,42.6-.91,85.21-1.15,127.82-1.74,50.33-.69,100.68,1.2,151-1.43,25-1.31,50-1.11,75.05-1.82,13-.37,26.07-1,39.07-2q35.82-2.72,71.59-6,29.42-2.69,58.78-6c19.3-2.14,38.54-4.72,57.84-6.92,14.27-1.62,28.57-3,42.88-4.36,13.78-1.28,27.56-2.51,41.36-3.43,12.74-.85,25.51-1.2,38.26-1.9a37.42,37.42,0,0,0,6.19-1.38h75.15c3.92.52,7.84,1.42,11.77,1.48,15.72.24,31.45-.1,47.16.38,21.27.65,42.52,2.28,63.8,2.75,38.61.85,77.23,1.22,115.85,1.66,52.74.61,105.48,1.37,158.23,1.57,74.84.29,149.69,0,224.53.25,11.16,0,22.34,1,33.46,2,20.15,1.81,40.26,3.94,60.39,6q25.42,2.58,50.84,5.25c18.53,1.92,37,4,55.6,5.73,21.2,1.93,42.43,3.49,63.66,5.22,24.66,2,49.31,4.26,74,5.94,27.61,1.89,55.24,3.4,82.88,4.8,25.25,1.28,50.52,2.28,75.78,3.25,17.56.67,35.12,1.24,52.69,1.59,33.82.66,67.64,1.7,101.46,1.56,58.07-.23,116.13.23,174.22-1C8014.12,1370.68,8103.39,1371.09,8192.64,1370.53Z" transform="translate(-10.91 -1324.16)"/><path class="cls-1" d="M16374.37,1370.53V2413H8192.64V1370.53l144.63,1.52c50.34.53,100.69,1.52,151,1.45,64.47-.1,128.94,1.61,193.4-1.1,31.92-1.34,63.9-1.2,95.85-1.88,20-.42,39.92-1.13,59.88-1.71.53,0,1.06-.07,1.6-.1q39-2.26,78.09-4.51c20.72-1.18,41.45-2.25,62.17-3.47,7.7-.45,15.39-1.13,23.08-1.79,16.44-1.41,32.87-2.89,49.3-4.32,20.41-1.78,40.85-3.39,61.24-5.36,24.37-2.36,48.71-5,73.07-7.55,17.47-1.8,34.94-3.76,52.44-5.25,19.61-1.67,39.25-3.34,58.91-4.16,16.46-.68,33,0,49.46-.17,65.8-.68,131.59.67,197.41-1.15,67.36-1.86,134.79-1.36,202.18-2,20.5-.21,41-.95,61.48-1.45,22.89-.57,45.77-1.2,68.66-1.69,9.32-.2,18.66.06,28-.16,3.4-.08,6.79-1,10.18-1.47h73.55a30.17,30.17,0,0,0,5.39,1.34c19.38,1.22,38.78,2.15,58.15,3.53q22.69,1.61,45.31,4.07c13.47,1.47,26.85,3.76,40.32,5.25,18,2,36,3.57,54,5.33,31,3,61.95,6.45,93,9,27,2.19,54.16,3.73,81.28,4.83,26.6,1.08,53.23,1.29,79.85,1.77,51.4.92,102.79-.65,154.21,1.33,46.56,1.8,93.2,1.32,139.8,2,14.63.23,29.26,1,43.88,1.79,7.7.41,15.4,1.11,23.06,2.07q33.69,4.19,67.34,8.72,62.94,8.45,125.86,17.07c24.8,3.37,49.59,6.87,74.4,10.13q54.25,7.12,108.54,13.94c28.53,3.54,57.08,7,85.68,10,26.2,2.7,52.47,4.79,78.74,6.83q33,2.57,66.1,4.39c16.74.92,33.52,1.25,50.27,1.87,2.12.08,4.24.43,6.36.58,12.21.82,24.43,2.34,36.63,2.3,43.14-.16,86.28-.75,129.42-1.4,19.16-.29,38.32-1,57.47-1.73q16.75-.6,33.48-1.7c21.24-1.39,42.46-3,63.69-4.44,24.68-1.72,49.4-3.06,74-5.22q45.72-4,91.35-9.14c37.3-4.17,74.61-8.38,111.8-13.45q106.11-14.45,211.14-35.53a45.79,45.79,0,0,1,16.56-.12c42,7.41,83.79,15.64,125.81,22.67,34.66,5.8,69.5,10.55,104.33,15.29,26.9,3.66,53.88,6.75,80.87,9.78,28.83,3.23,57.67,6.36,86.55,9,23,2.12,46.16,3.48,69.25,5.18,8.49.63,17,1.29,25.47,1.91,12.47.91,24.93,2,37.41,2.65,14.61.79,29.25,1.21,43.87,1.83,12.5.52,25,1.1,37.48,1.64,22.6,1,45.19,2.72,67.79,2.81,45.52.18,91.06,1.47,136.53-2.76,21.44-2,43-2.12,64.57-3.36,25.24-1.45,50.47-3,75.67-4.86,19.37-1.46,38.72-3.31,58-5.41,25.14-2.74,50.25-5.82,75.35-8.92,35.67-4.4,71.35-8.8,107-13.49,37.49-4.94,74.93-10.24,112.4-15.35,38-5.18,76-10.51,114-15.39,24.82-3.18,49.66-6.47,74.6-8.28,27.59-2,55.29-2.81,83-3.39,42.6-.91,85.21-1.15,127.82-1.74,50.33-.69,100.68,1.2,151-1.43,25-1.31,50-1.11,75.05-1.82,13-.37,26.07-1,39.07-2q35.82-2.72,71.59-6,29.42-2.69,58.78-6c19.3-2.14,38.54-4.72,57.84-6.92,14.27-1.62,28.57-3,42.88-4.36,13.78-1.28,27.56-2.51,41.36-3.43,12.74-.85,25.51-1.2,38.26-1.9a37.42,37.42,0,0,0,6.19-1.38h75.15c3.92.52,7.84,1.42,11.77,1.48,15.72.24,31.45-.1,47.16.38,21.27.65,42.52,2.28,63.8,2.75,38.61.85,77.23,1.22,115.85,1.66,52.74.61,105.48,1.37,158.23,1.57,74.84.29,149.69,0,224.53.25,11.16,0,22.34,1,33.46,2,20.15,1.81,40.26,3.94,60.39,6q25.42,2.58,50.84,5.25c18.53,1.92,37,4,55.6,5.73,21.2,1.93,42.43,3.49,63.66,5.22,24.66,2,49.31,4.26,74,5.94,27.61,1.89,55.24,3.4,82.88,4.8,25.25,1.28,50.52,2.28,75.78,3.25,17.56.67,35.12,1.24,52.69,1.59,33.82.66,67.64,1.7,101.46,1.56,58.07-.23,116.13.23,174.22-1C16195.85,1370.68,16285.12,1371.09,16374.37,1370.53Z" transform="translate(-10.91 -1324.16)"/></svg>