<svg id="Layer_1_copy_Image" data-name="Layer 1 copy Image" xmlns="http://www.w3.org/2000/svg" viewBox="0 0 10234 853.19"><defs><style>.cls-1{fill:#060606;}</style></defs><title>01</title><path class="cls-1" d="M10236,2384v498H2V2384c3.19-4.19,7.78-4.85,12.54-4.83,24,.1,47.87,2,71.81,3,2.65.12,5.29.67,8,.71,59,1,117.91,3.78,176.86,1.92,69.26-2.18,138.08-8.37,206.53-20.55q123-21.87,245.85-44.25a647.83,647.83,0,0,1,85.32-9.41c30.89-1.5,61.78-4.37,92.49-8.31A100.68,100.68,0,0,0,934.65,2292c7.11-3.65,14.27-7.22,21.51-10.62,14.48-6.8,29.07-8.07,44.62-3,53.84,17.56,107.34,36.18,161.35,53.24,71.82,22.69,143.85,44.61,217.68,60.09,38.34,8,76.58,6.81,115.2,2.43q77.44-8.79,154.71-18.83c65.4-8.52,130.7-17.8,196-27.19q126.12-18.13,252.44-34.73c48.53-6.47,96.84-4.32,145.44.49,41.5,4.11,83.16,2.22,124.23-7.07,37.7-8.53,75.54-16.47,113.73-22.47a260.17,260.17,0,0,1,38.78-3.37c43-.26,85.72-5.13,128.5-8.79,35.49-3,71-6,106.42-9.54,41.46-4.18,83-5.69,124.59-7,31.3-1,62.4,3.82,92.93,11.43,28.85,7.19,56.1,19.18,84.52,27.61a146.69,146.69,0,0,0,44.32,6.38c24-.37,48,.83,72-.29,48.88-2.3,97.8-2.78,146.68-5.26,30.91-1.57,61.84-3,92.74-4.66,31.57-1.74,63.08-4.37,94.6-7,38.51-3.18,76.86-7.59,115.19-12.44,47.07-5.95,93.19-16.12,138.91-28.48,108.09-29.22,214.9-62.89,322.76-92.92,79.94-22.25,159.91-44.39,240.64-63.65,91.11-21.74,182.68-41.18,275.73-52.76,19.91-2.48,40-2.7,60.06-3.55,13.28-.56,26.57-1.88,39.9-1.16h49.34a201.16,201.16,0,0,1,90.46,19.84c54.42,26.09,112.77,37.89,171.61,48q42.81,7.38,85.5,15.45c15.89,3,31.31,4,47.43.85,61.41-12.07,123.41-21,184.3-35.81,30.95-7.51,59.44-21.52,88.69-33.45,25.62-10.45,52.06-14.9,79.5-14.9H5547c67.88,0,134.92,7.91,201.59,20.32,135.8,25.28,269.16,60.39,402.07,97.57,107.19,30,213.53,62.9,320.81,92.58,70.86,19.6,142.71,33.37,215.95,39.76,53.06,4.62,106.11,9.23,159.31,12.24,44.89,2.54,89.8,4,134.7,5.87,50.58,2.16,101.17,3.07,151.78,4.09,29.75.6,57.4-5.56,84.74-16,33.39-12.76,67.5-23.35,103.22-26.91,19.12-1.91,38.28-3.88,57.72-2,20.85,2,41.89.63,62.88,2.29q55.75,4.42,111.46,9.22c34.17,2.91,68.34,5.92,102.45,9.32,49.63,4.94,99.88,2,149.05,13.54q44.69,10.53,90,18.8c43.07,7.89,86.29,7.38,129.41,2.49,42.7-4.84,85-3.42,127.51,1.86,115.38,14.35,230.35,31.63,345.51,47.57,60.38,8.35,120.74,17,181.25,24.24,37.31,4.49,74.63,9.21,112.24,11.66,36.57,2.39,71.65-4.09,106.68-12.26,56.83-13.25,112.64-30.2,168.37-47.43,61.46-19,121.92-41.05,183.41-60,14.08-4.33,28-4.23,40.55,3.61,31.21,19.48,66.18,23.55,101.6,25.49a1425.69,1425.69,0,0,1,198,25.18c86,16.93,172.25,32.38,259.1,44.12,33.29,4.5,66.94,5.85,100.57,7.23q53.48,2.19,106.9,1.48c51.59-.6,103.17-2.19,154.68-5.47C10219.07,2378.89,10228.62,2376.28,10236,2384Z" transform="translate(-2 -2028.79)"/></svg>