<svg id="Layer_2_copy_Image" data-name="Layer 2 copy Image" xmlns="http://www.w3.org/2000/svg" viewBox="0 0 10234 1027.97"><defs><style>.cls-1{fill:#1e1e1e;}</style></defs><title>02</title><path class="cls-1" d="M10236,2132v750H2q0-375,0-750c8.95-.76,17.93-1.25,26.84-2.31,37.68-4.5,75.33-9.22,113-13.76q68.92-8.31,137.85-16.47c37.36-4.49,74.7-9.09,112.06-13.56,41.33-4.94,82.67-9.72,124-14.68q53.07-6.38,106.1-13,101.53-12.53,203.06-25.1c30.69-3.79,61.37-7.63,92.07-11.26,46.53-5.51,93.25-9.74,139.59-16.6,45.3-6.71,90.25-15.84,135.28-24.26,28.72-5.37,57.27-11.61,86-17.09,44.78-8.56,89.63-16.72,134.42-25.24q75-14.28,150-28.91,81.33-15.71,162.65-31.46,49.44-9.6,98.84-19.4c8.1-1.59,16.2-3.25,24.29-4.88h10c2.09.84,4.12,2,6.29,2.46,19.53,4,39.13,7.57,58.61,11.71,25.69,5.46,51.29,11.34,76.94,17q56,12.33,112,24.6,61.79,13.55,123.58,27.09c28.15,6.22,56.25,12.67,84.4,18.92q45.61,10.13,91.26,20.05c21.11,4.56,42.17,9.58,63.47,13,26.24,4.24,52.69,7.11,79.07,10.48,33,4.21,65.95,8.48,99,12.42,26.41,3.16,52.88,5.79,79.31,8.8,26.1,3,52.15,6.37,78.27,9.13q55.06,5.82,110.2,10.94c37.1,3.46,74.19,7.16,111.36,9.65,37.86,2.53,75.8,3.92,113.72,5.39,27.28,1.06,54.59,1.62,81.89,2,56.3.87,112.6,1.43,168.89,2.27q42.46.63,84.9,1.8c41.91,1.2,83.83,2.34,125.71,4.18a535.85,535.85,0,0,1,55.6,5.13c42.62,6.36,83.08,20.69,123.43,35.22,37.55,13.52,74.77,28,113.51,38,31.86,8.29,64.06,11.87,96.91,9.63,24.61-1.68,49.21-1.85,73.8.58,5.18.51,10.4.62,17.23,1-2.23,1.72-2.9,2.33-3.66,2.8s-1.71.87-2.57,1.29a17.86,17.86,0,0,0,8.36,2.42c32.22,2.47,64.44,5,96.67,7.34,24.25,1.77,48.51,4.38,72.79,4.73a1624.75,1624.75,0,0,0,174.76-6.41c19.17-1.79,38.14-3.5,55.09-15,14.45-9.82,29.52-7.65,43.7,2.75,25.34,18.58,54.26,26.06,85.34,27,31.47.93,62.55-2.13,93.47-7.51,32.15-5.6,64.21-11.74,96.43-16.82a1183.5,1183.5,0,0,1,139.22-13.2c57.38-2.19,114.6-.56,171.51,7.9a33.71,33.71,0,0,0,9.84.06c55.9-8.44,112.14-10.1,168.51-8.11,76.76,2.71,152.57,13.16,227.84,28.18,37.34,7.45,75.09,11.55,113.26,9,26-1.71,50.49-8.54,72.26-23.56,4.11-2.83,8.42-5.38,12.76-7.86,8-4.54,16.48-5.75,25-2.29,7.37,3,14.32,7,21.55,10.36,4.17,1.94,8.39,4.34,12.83,5,12.49,1.95,25.07,3.6,37.68,4.51,27.91,2,55.84,4.18,83.81,5,33,.94,66,1.85,98.94.31,45.91-2.14,91.71-6.55,137.56-10,8.43-.64,16.84-1.47,26.32-2.31l-6.22-5.52c7-.49,12.55-1.08,18.15-1.23,19-.49,38-1.81,56.86-1,26.33,1.17,52.55,2.11,78.69-2,29-4.57,57-13.07,84.73-22.64,39.59-13.68,79-27.8,118.63-41.42,24-8.24,48.55-14.73,73.72-17.16,35.73-3.45,71.61-5.48,107.47-7.3,26.6-1.35,53.26-1.54,79.9-2,44-.76,87.94-1.27,131.91-2,40.63-.65,81.26-1.2,121.88-2.21,46.27-1.15,92.55-2.45,138.8-4.27,26.93-1.06,53.85-2.9,80.72-5.08,34.48-2.8,68.92-6.19,103.35-9.53q43.68-4.24,87.31-9c25.46-2.76,50.87-5.91,76.32-8.78,26.1-3,52.23-5.64,78.31-8.71,25.42-3,50.8-6.32,76.19-9.55,33-4.2,66.11-7.5,98.88-12.94,30.11-5,59.88-12.11,89.73-18.63,58.63-12.81,117.21-25.87,175.81-38.81q66.66-14.72,133.32-29.39,70.62-15.57,141.25-31.1c8.42-1.84,17-2.82,25.45-4.7,17.45-3.89,34.82-8.11,52.23-12.19h10c1.48.65,2.9,1.64,4.44,1.89,10.15,1.67,20.4,2.84,30.49,4.81,41.11,8,82.17,16.3,123.27,24.35q115.06,22.53,230.16,44.86c76.71,14.79,153.49,29.24,230.23,43.91,37.82,7.23,75.59,14.71,113.41,21.91,15.33,2.92,30.65,6,46.12,8,47.13,5.9,94.34,11.08,141.48,16.89,56,6.91,112,14.34,168,21.25,51.53,6.35,103.11,12.32,154.67,18.46q67.91,8.08,135.83,16.16c42.64,5.13,85.26,10.43,127.89,15.58q70.86,8.56,141.74,17c38,4.54,76,9,114,13.59C10186.5,2125.63,10211.25,2128.87,10236,2132Z" transform="translate(-2 -1854)"/></svg>