<svg id="Layer_8_copy_Image" data-name="Layer 8 copy Image" xmlns="http://www.w3.org/2000/svg" viewBox="0 0 10234 1077.97"><defs><style>.cls-1{fill:#282828;}</style></defs><title>03</title><path class="cls-1" d="M10236,2142v740H2q0-369,0-738c3.54-.93,7.09-1.84,10.62-2.79,112-30.14,224.33-58.34,340.08-70a510.55,510.55,0,0,1,83.82-1.91c25.89,1.64,52,2.61,77.87,1.42,32.9-1.51,65.76-4.82,98.49-8.57a1457.49,1457.49,0,0,0,163.41-27.69c45-10.43,89.37-24.06,133.56-37.76,33.69-10.45,67.64-17.46,103-17.08,34,.37,67.95,1,101.93,1.1,16.64.07,33.41.48,49.91-1.29,22.8-2.45,45.43-6.63,68.08-10.41,24.95-4.17,49.68-10,74.77-12.85,62.89-7.08,125.61-15.18,187.92-26.32,53.47-9.56,106.55-20.79,158.12-38.25,33.89-11.47,68.78-18.57,104.17-23.21,49-6.43,98.28-8.22,147.62-7.15,43,.93,85.84.34,128.72-2.66,28.19-2,56.47-2.82,84.7-4.13,29.57-1.37,59.15-2.79,88.73-4,35.57-1.45,71.15-3.52,106.74-3.81,46-.38,91.93.72,137.9,1.22q14.49.16,29,.65c28.94,1,57.86,2.81,86.8,3,20.24.12,40.54-1.42,60.74-3.07,45.37-3.71,90.69-8,136-12,39.39-3.42,78.76-7.16,118.2-9.87,38.48-2.65,77-4.14,115.57-6.2,15.61-.84,31.22-1.66,46.8-2.8,31.15-2.27,62.27-5,93.43-7.08,28.87-1.95,57.78-3.31,86.66-5,1.58-.09,3.11-.94,4.67-1.43h40a15.35,15.35,0,0,0,3.68,1.38c27.77,2.84,55.56,5.43,83.3,8.42,33.71,3.64,67.44,7.2,101.06,11.54,34.71,4.48,69.51,7.67,104.48,8.35,53.29,1,106.59,1.59,159.88,2.31,49,.67,98,1.13,146.92,2,20.64.37,41.28,1.32,61.9,2.46,34.55,1.92,69.08,4.27,103.63,6.32q63.8,3.8,127.61,7.43c30.91,1.81,61.81,4.21,92.74,5.35,63.93,2.36,127.94,3.1,191.83,6.28,71.53,3.56,143,8.6,214.42,13.87,73.09,5.38,145.86,13.89,218.46,23.9,78.89,10.88,157.28,24.36,234.82,42.59a37.06,37.06,0,0,0,17.63-.05q89-21,179.49-34.35c45.13-6.59,90.33-12.85,135.62-18.24,43.65-5.2,87.41-9.52,131.19-13.44q58.22-5.21,116.61-8.63,90.81-5.23,181.69-9.09c39.28-1.62,78.65-1.16,117.93-2.94,49.2-2.23,98.34-5.89,147.52-8.79,41.19-2.43,82.38-4.93,123.6-6.92,50.89-2.46,101.78-5.25,152.71-6.39,74.94-1.68,149.91-1.8,224.86-3,31.63-.52,63.3-1.37,94.85-3.55,29.19-2,58.25-6,87.35-9.19q61.92-6.89,123.81-14c8.81-1,17.59-2.37,26.38-3.57h42c1.53.5,3,1.33,4.6,1.44,11.95.82,23.9,1.45,35.85,2.22q48.78,3.15,97.55,6.37c28.53,1.9,57,4,85.57,5.79,17.93,1.12,35.91,1.63,53.84,2.7q40.32,2.39,80.63,5.2c21.23,1.48,42.46,3.06,63.66,4.92,32.77,2.88,65.51,6.08,98.27,9.05,19.53,1.77,39.07,3.49,58.62,5,22.87,1.78,45.75,4.62,68.63,4.66,34.27.07,68.54-2.18,102.83-2.93,44.63-1,89.28-2.06,133.91-1.93,33.6.1,67.19,2,100.79,3.15q32.93,1.13,65.85,2.46c26.92,1.12,53.84,2.41,80.76,3.59q32.42,1.41,64.84,2.72c29.25,1.16,58.5,2.75,87.77,3.23,34.32.56,68.66-.45,103,.26,49.74,1,99.15,6,147.5,18.17,25.17,6.31,49.75,14.92,74.76,21.92,80.08,22.44,162,35.23,244.27,46,23.78,3.11,47.75,4.85,71.43,8.48,32.24,4.94,64.24,11.35,96.43,16.62,22.32,3.66,44.6,8.13,67.4,7.8,19.66-.29,39.32-.79,59-.84,30-.08,60-.34,89.94.43a210.16,210.16,0,0,1,59,9.65q35.69,11.43,71.76,21.64c30.13,8.48,60.14,17.75,90.73,24.1,65.55,13.61,131.58,24.78,198.31,31.12,38.5,3.66,77.06,6.39,115.78,3.63,13.63-1,27.26-2,40.91-2.3,41.79-.79,83.15,4.24,124.34,10.55,61,9.32,121.19,22.3,181,37.17C10170.43,2124.23,10203.16,2133.32,10236,2142Z" transform="translate(-2 -1804)"/></svg>