<svg id="Layer_4_copy_Image" data-name="Layer 4 copy Image" xmlns="http://www.w3.org/2000/svg" viewBox="0 0 10234 1308"><defs><style>.cls-1{fill:#464646;}</style></defs><title>04</title><path class="cls-1" d="M10236,1829V2883H2q0-527,0-1054c16,.08,32-.08,48,.28,38,.85,75.93,2,113.9,2.9,36.64.86,73.28,1.54,109.93,2.27,15.32.31,30.65.46,46,.83,38.3.93,76.6,2,114.9,2.92,32.31.8,64.62,1.49,96.93,2.28q75.43,1.84,150.87,3.74,46,1.15,91.92,2.35,65.93,1.78,131.86,3.64c37,1,73.94,1.73,110.89,3,40.6,1.41,81.17,3.31,121.76,5,21.62.92,43.25,1.82,64.86,2.91,31.91,1.61,63.81,3.47,95.72,5.07,21.95,1.1,43.91,1.95,65.86,2.92,38.25,1.69,76.5,3.52,114.75,5,26,1,51.94,1.91,77.92,2.29q64.93,1,129.87,1.11c10.94,0,22-.17,32.79-1.88,38.43-6.1,75.81-17.69,114.72-21.74,11.69-1.22,22.85-3.06,34.31.67,5,1.64,10.37,2.41,15.57,3.52,12.35,2.65,24.59,5.77,37.46,4.95,17.27-1.1,34.58-1.66,51.87-2.52,22.94-1.14,45.87-2.41,68.82-3.52,19-.91,37.92-1.64,56.87-2.51,24.94-1.14,49.88-2.4,74.82-3.5,19.62-.86,39.25-1.56,58.88-2.29,33.61-1.26,67.22-3.59,100.83-3.48,55.29.18,110.57,1.87,165.86,3.07,15.31.33,30.61,1.45,45.92,1.71,17.32.29,34.71.83,52-.2,26.89-1.6,53.71-4.43,80.55-6.76,55.68-4.84,111.36-9.79,167.05-14.51,24.53-2.08,49.08-4,73.65-5.48,29.9-1.78,59.85-2.69,89.74-4.55,34.86-2.17,69.68-5.09,104.54-7.46s69.74-4.35,104.59-6.71a405.83,405.83,0,0,1,71.8,1.09c39,4.27,78,9.08,117,13.36,10.87,1.19,22,2.83,32.77,1.69,69.8-7.42,139.57-15.09,209.25-23.58,60.09-7.32,120.06-15.54,180-23.85,73.68-10.21,145.6-28.21,216.85-49.31,35.71-10.57,71.58-21.19,108-28.54,78.63-15.87,157.71-29.5,236.55-44.31S4548.61,1621,4627.41,1606c21.91-4.17,43.64-9.7,65.73-12.43,27.06-3.36,54.38-4.73,81.62-6.43,37.55-2.34,75.11-4.48,112.69-6.15,40.93-1.82,81.88-3,122.82-4.54A86.47,86.47,0,0,0,5020,1575h206c2.93.49,5.84,1.33,8.78,1.43,21.31.66,42.63.94,63.93,1.79,36.94,1.47,73.88,2.93,110.78,5q52.84,3,105.61,7.22c19.54,1.56,39.2,3.16,58.44,6.73,75.27,13.95,150.36,28.88,225.59,43.08q110.38,20.84,220.9,40.92c50.8,9.18,101.44,18.91,151,33.8q44.9,13.5,90.12,25.91c87.55,24.06,177.22,36.5,267,47.89,46.53,5.9,93.13,11.25,139.73,16.59,46.93,5.38,93.9,10.48,140.86,15.58a59.21,59.21,0,0,0,13-.08c32.07-3.64,64.16-7.1,96.15-11.3,42.37-5.55,84.8-7.69,127.46-4.48,33.84,2.54,67.7,4.82,101.55,7.16q36.84,2.54,73.7,4.91c25.89,1.69,51.78,3.48,77.69,5,20.93,1.2,41.93,1.5,62.82,3.12,43.45,3.37,86.86,7.26,130.27,11.1,35.46,3.13,70.88,6.63,106.34,9.7,29.85,2.59,59.72,5.06,89.74,4.16q56.92-1.71,113.85-3.36c11.32-.33,22.65-.71,34-.71q60.95,0,121.89.29c9.32,0,18.65.34,28,.75,37.25,1.63,74.49,3.39,111.73,5,23.28,1,46.57,1.89,69.85,3q39.4,1.81,78.8,3.88c17.62.91,35.22,2,52.84,2.94,22.29,1.16,44.54,2.46,66.35-4.53,7.88-2.53,16.22-3.66,24.37-5.3,2.58-.52,5.35-1.24,7.85-.81,27.19,4.72,54.42,9.3,81.5,14.62,26.4,5.18,52.34,12.61,79.73,11.79,24.28-.72,48.61.2,72.9-.19,34.64-.56,69.27-1.63,103.9-2.55,24-.64,48-1.1,71.91-2.15,39.58-1.72,79.13-3.84,118.7-5.81s79.12-4,118.69-5.94c43.23-2.08,86.46-4.25,129.7-6,41.27-1.64,82.55-2.83,123.84-4.07q70.42-2.11,140.85-4,78.93-2.11,157.86-4.05,81.43-2,162.86-3.94,87.43-2.07,174.86-4.07t174.87-3.91C10151.38,1830.28,10193.69,1829.71,10236,1829Z" transform="translate(-2 -1575)"/></svg>