<svg id="Layer_5_copy_Image" data-name="Layer 5 copy Image" xmlns="http://www.w3.org/2000/svg" viewBox="0 0 10234 1286"><defs><style>.cls-1{fill:#b5b5b5;}</style></defs><title>05</title><path class="cls-1" d="M10236,1758V2882H2q0-562,0-1124c41-.56,81.92-1.18,122.89-1.66,63.3-.73,126.6-1.5,189.91-2q68.49-.53,137-.33,221.45.82,442.9,2.09c41.28.29,82.56,2.09,123.82,3.75,40.25,1.62,80.47,4.07,120.71,5.9q51.39,2.33,102.81,4c32.29,1,64.61,1.32,96.9,2.32,33.28,1,66.54,2.94,99.82,3.71,49.63,1.15,99.27,1.57,148.9,2.42,24.3.42,48.6,1.08,72.9,1.69,25,.63,49.93,1.56,74.9,2q76,1.23,151.92,2,130.45,1.2,260.9,2c23.64.12,47.28-.75,70.91-1.47q59.41-1.8,118.81-4,44.42-1.68,88.82-4c34.26-1.78,68.5-3.83,102.74-5.9q63.82-3.86,127.63-7.94,64.31-4,128.62-8.1,59.32-3.83,118.62-7.88,60.3-4,120.6-8.06,48.81-3.19,97.63-6.17c31.57-2,63.13-4.05,94.71-5.84,38.24-2.17,76.49-4,114.73-6.14,45.89-2.53,91.78-5.26,137.67-7.72,43.91-2.36,87.83-4.48,131.74-6.7,15-.76,29.95-1.38,44.91-2.25,29.92-1.75,59.81-3.82,89.74-5.39,32.92-1.72,65.87-3,98.8-4.54,12.3-.58,24.59-1.51,36.89-2.21,31.92-1.81,63.83-3.69,95.76-5.32,20.29-1,40.6-1.6,60.89-2.48q20.46-.88,40.9-2.05c31.57-1.78,63.13-3.79,94.71-5.39,32.25-1.63,64.53-2.87,96.79-4.33a89.06,89.06,0,0,0,8.92-1.06c28.34-4.18,56.64-8.74,85-12.53,68.68-9.16,137.35-18.38,206.12-26.8q78.35-9.59,156.95-17.16,67.63-6.48,135.48-10.57c45.88-2.78,91.84-4.16,137.76-6.25,5.63-.26,11.23-1.07,16.84-1.63h232c3.28.52,6.55,1.37,9.85,1.49,25,.89,50,1.28,74.92,2.52,37.92,1.88,75.85,3.88,113.72,6.63,34.88,2.53,69.7,5.87,104.51,9.3,40.44,4,80.87,8.16,121.24,12.82q61.55,7.1,123,15.35c50.52,6.76,101,14.13,151.44,21.06,18.79,2.58,37.6,5.23,56.49,6.86,17.23,1.49,34.59,1.56,51.88,2.42q56.36,2.79,112.71,5.77c32.24,1.72,64.47,3.74,96.72,5.4,31.93,1.64,63.88,3,95.82,4.47,16.3.76,32.61,1.46,48.9,2.37,30.91,1.74,61.81,3.76,92.72,5.38,31.93,1.68,63.88,3,95.82,4.52,13.63.65,27.26,1.43,40.89,2.23,41.56,2.44,83.12,5,124.69,7.34,30.26,1.7,60.54,3.07,90.81,4.64q20,1,39.9,2.28c26.92,1.66,53.83,3.58,80.76,5,31.26,1.69,62.54,2.94,93.81,4.48,13.3.65,26.6,1.47,39.89,2.34,27.22,1.77,54.43,3.65,81.65,5.43,14.29.94,28.6,1.68,42.88,2.67,23.91,1.67,47.81,3.58,71.72,5.18,25.59,1.71,51.2,3,76.79,4.75,44.52,3,89,6.17,133.54,9.14,31.23,2.09,62.48,4,93.72,5.92q64.81,4.05,129.62,8.05c34.57,2.09,69.14,4.26,103.74,5.92q54.88,2.63,109.8,4.32,73.9,2.27,147.82,3.74c11.62.24,23.27-1.31,34.91-1.4,98.3-.8,196.61-1.31,294.91-2.2,37.63-.34,75.26-1.38,112.89-2.18,23.63-.5,47.26-1.27,70.9-1.71,40.3-.75,80.6-1.69,120.9-1.9,52.31-.28,104.58-1.18,156.82-4,24.6-1.31,49.27-1.38,73.9-2.16,38.94-1.24,77.89-2.37,116.81-4,42.25-1.75,84.47-4.09,126.71-6,32.93-1.48,65.87-2.93,98.82-3.92,33.29-1,66.6-1.59,99.91-2q45.49-.58,91-.4,235.45.86,470.89,2c60.63.32,121.27,1.38,181.9,1.91C10174,1758.15,10205,1758,10236,1758Z" transform="translate(-2 -1596)"/></svg>