<svg id="Layer_6_copy_Image" data-name="Layer 6 copy Image" xmlns="http://www.w3.org/2000/svg" viewBox="0 0 10234 1361.95"><defs><style>.cls-1{fill:#d2d2d2;}</style></defs><title>06</title><path class="cls-1" d="M10236,1579V2882.95H2V1579l180.91,1.91c63,.66,125.94,1.91,188.91,1.81,80.64-.12,161.28,2,241.92-1.37,39.93-1.67,79.93-1.5,119.89-2.35,25-.53,49.93-1.41,74.9-2.13.67,0,1.33-.09,2-.13q48.84-2.83,97.68-5.65c25.92-1.47,51.85-2.81,77.77-4.34,9.63-.57,19.25-1.42,28.87-2.24,20.56-1.77,41.11-3.61,61.67-5.4,25.53-2.23,51.09-4.24,76.6-6.71,30.49-3,60.93-6.31,91.4-9.45,21.86-2.25,43.7-4.71,65.59-6.57,24.53-2.09,49.09-4.18,73.68-5.2,20.59-.86,41.25,0,61.87-.21,82.3-.85,164.6.84,246.92-1.44,84.26-2.33,168.6-1.7,252.9-2.56,25.64-.26,51.27-1.18,76.91-1.82,28.63-.71,57.25-1.51,85.88-2.11,11.66-.25,23.34.08,35-.2,4.26-.1,8.49-1.2,12.73-1.84h92c2.25.58,4.47,1.53,6.75,1.67,24.24,1.52,48.51,2.69,72.74,4.41q28.38,2,56.67,5.09c16.85,1.84,33.59,4.7,50.43,6.57,22.5,2.5,45.05,4.47,67.58,6.67,38.76,3.78,77.48,8.07,116.3,11.2,33.83,2.73,67.75,4.67,101.66,6,33.27,1.35,66.58,1.62,99.88,2.21,64.29,1.15,128.58-.81,192.89,1.67,58.23,2.25,116.57,1.65,174.86,2.56,18.3.29,36.6,1.27,54.88,2.23,9.63.51,19.27,1.39,28.84,2.58q42.14,5.25,84.23,10.9,78.73,10.57,157.44,21.35c31,4.22,62,8.59,93.07,12.67q67.86,8.9,135.76,17.43c35.69,4.43,71.4,8.81,107.17,12.49,32.78,3.37,65.64,6,98.49,8.55q41.31,3.22,82.68,5.49c20.94,1.15,41.92,1.56,62.88,2.34,2.66.1,5.3.54,8,.72,15.27,1,30.55,2.93,45.82,2.88,54-.2,107.92-.94,161.88-1.76,24-.36,47.93-1.29,71.89-2.16q21-.75,41.88-2.12c26.56-1.74,53.11-3.7,79.67-5.55,30.88-2.15,61.79-3.83,92.62-6.53q57.19-5,114.26-11.44c46.66-5.22,93.33-10.48,139.84-16.82q132.73-18.08,264.1-44.44a57.28,57.28,0,0,1,20.72-.15c52.49,9.27,104.8,19.57,157.37,28.36,43.35,7.25,86.94,13.2,130.5,19.13,33.65,4.58,67.4,8.44,101.15,12.23,36.06,4,72.14,8,108.26,11.29,28.83,2.66,57.74,4.35,86.62,6.48,10.62.78,21.24,1.61,31.86,2.38,15.6,1.14,31.19,2.47,46.8,3.31,18.28,1,36.59,1.52,54.88,2.29,15.63.66,31.26,1.37,46.89,2.05,28.27,1.24,56.53,3.4,84.8,3.51,56.94.23,113.9,1.84,170.78-3.45,26.82-2.49,53.85-2.65,80.76-4.2,31.56-1.81,63.13-3.71,94.66-6.08,24.23-1.82,48.43-4.14,72.59-6.77,31.45-3.43,62.85-7.28,94.25-11.15,44.62-5.51,89.25-11,133.82-16.87,46.89-6.18,93.72-12.81,140.59-19.2,47.53-6.48,95-13.15,142.61-19.25,31-4,62.12-8.09,93.31-10.36,34.51-2.51,69.16-3.51,103.77-4.24,53.29-1.13,106.59-1.44,159.88-2.17,63-.87,125.93,1.5,188.88-1.79,31.25-1.64,62.59-1.38,93.88-2.28,16.3-.46,32.61-1.21,48.87-2.45q44.8-3.4,89.55-7.56,36.8-3.37,73.53-7.45c24.14-2.68,48.21-5.91,72.34-8.65,17.85-2,35.74-3.79,53.63-5.45,17.23-1.6,34.47-3.14,51.74-4.29,15.94-1.06,31.91-1.5,47.86-2.38,2.6-.14,5.16-1.13,7.74-1.73h94c4.91.65,9.81,1.78,14.73,1.85,19.66.31,39.34-.12,59,.48,26.61.82,53.19,2.85,79.8,3.44,48.3,1.06,96.6,1.53,144.91,2.08,66,.76,131.94,1.71,197.92,2,93.62.36,187.24.05,280.86.31,14,0,27.94,1.25,41.86,2.5,25.2,2.26,50.36,4.93,75.53,7.48q31.8,3.22,63.59,6.56c23.18,2.4,46.34,5.05,69.54,7.17,26.52,2.42,53.08,4.37,79.62,6.53,30.85,2.51,61.68,5.33,92.56,7.44,34.53,2.36,69.1,4.25,103.67,6,31.58,1.6,63.19,2.85,94.79,4.07,22,.84,43.93,1.55,65.9,2,42.3.83,84.61,2.12,126.91,2,72.64-.29,145.26.29,217.92-1.26C10012.7,1579.19,10124.36,1579.71,10236,1579Z" transform="translate(-2 -1521)"/></svg>